# xmcd
#
# Track frame offsets:
# 183
# 13138
# 27040
# 39635
# 54133
# 66753
# 82075
# 94563
# 106848
# 117645
#
# Disc length: 1777 seconds
#
#
# Revision: 0
# Processed by: cddbd v1.5.2PL0 Copyright (c) Steve Scherf et al.
# Submitted via: FreeRIP 2.951 
#
DISCID=7806ef0a
DTITLE=Percy Sledge - The Very Best Of
DYEAR=1900
DGENRE=Blues
TTITLE0=When A Men Loves A Woman
TTITLE1=Warm And Tender Love
TTITLE2=It Tears Me Up
TTITLE3=Take Time To Know Her
TTITLE4=Cover Me
TTITLE5=Out Of Left Field
TTITLE6=Sudden Stop
TTITLE7=My Adorable One
TTITLE8=Thief In The Night
TTITLE9=Just Of Reach
EXTD=
EXTT0=
EXTT1=
EXTT2=
EXTT3=
EXTT4=
EXTT5=
EXTT6=
EXTT7=
EXTT8=
EXTT9=
PLAYORDER=
